<?xml version="1.0" encoding="utf-8"?>
<!-- Generator: Adobe Illustrator 25.3.1, SVG Export Plug-In . SVG Version: 6.00 Build 0)  -->
<svg version="1.1" id="Layer_1" xmlns="http://www.w3.org/2000/svg" xmlns:xlink="http://www.w3.org/1999/xlink" x="0px" y="0px"
	 viewBox="0 0 81.4 81.4" style="enable-background:new 0 0 81.4 81.4;" xml:space="preserve">
<style type="text/css">
	.st0{fill:#4B0082;}
</style>
<g id="Layer_2_1_">
	<g id="Layer_1-2">
		<path class="st0" d="M27.7,53.6V29.2c0-2.3,1.1-3.4,3.4-3.4c4.5,0,9,0,13.5,0c1.5-0.2,2.9,0.7,3.3,2.1c0.2,0.6,0.5,0.1,0.7,0
			c2-1.6,4.3-2.8,6.8-3.4c6.2-1.3,12.2-0.6,17.8,2.7c4.3,2.6,6.4,6.7,7.4,11.4c0.4,2.1,0.7,4.2,0.7,6.3c0,5,0,10,0,14.9
			c0.1,1.5-1.1,2.9-2.6,2.9c-0.3,0-0.5,0-0.8-0.1c-1.2-0.4-2.1-1.5-2.1-2.8c0-4.5,0-9,0-13.5c0-2.4-0.2-4.8-0.8-7.1
			c-1.3-5.3-4.6-8.4-10-9.3c-2.3-0.4-4.7-0.5-7-0.3c-3,0.3-5.7,1.7-7.8,3.8c-1,1-1.9,2.1-2.8,3.2c-0.7,1-2,1.4-3.2,1
			c-1.2-0.4-2-1.6-1.9-2.8c0-1,0-1.9,0-2.9c0-0.4-0.1-0.6-0.6-0.6c-2.7,0-5.4,0-8.1,0c-0.6,0-0.6,0.3-0.6,0.7c0,3.5,0,6.9,0,10.4
			c0,10.8,0,21.6,0,32.4c0,0.8,0.2,1,1,1c2.8,0,5.6,0,8.4,0c0.3,0,0.9,0.2,0.8-0.4s0.5-1.3-0.6-1.5c-1.3-0.2-2.3-1.4-2.3-2.7
			c0-1.4,1.1-2.6,2.4-2.8c0.5-0.1,0.6-0.4,0.5-0.7s0.4-1-0.5-1.2c-1.2-0.2-2.1-1.1-2.4-2.2c-0.2-1,0.2-2,1-2.6
			c0.2-0.3,0.6-0.4,0.9-0.5c1,0,0.9-0.6,0.9-1.3c0-3.3,0-6.5,0-9.8c0.1-2.9,1.1-5.7,2.7-8.1c3.9-5.7,13.8-5.7,17.4,1.2
			c1.2,2.2,1.9,4.7,2,7.2c0,8.1,0,16.3,0,24.4c0,1.2-0.1,1,1.1,1c2.8,0,5.6,0,8.3,0c0.6,0,0.8-0.1,0.8-0.8c0-1.8,0-3.7,0-5.5
			c-0.1-1.5,1-2.9,2.5-3c1.5-0.1,2.9,1,3,2.5c0,0.2,0,0.3,0,0.5c0,2.9,0,5.9,0,8.8c0.1,1.5-1,2.9-2.6,3c-0.1,0-0.3,0-0.4,0
			c-5.1,0-10.1,0-15.2,0c-1.6,0.1-2.9-1.1-3-2.6c0-0.2,0-0.3,0-0.5c0-8.9,0-17.9,0-26.8c0-1.9-0.4-3.8-1.3-5.5
			c-1.3-2.4-4.3-3.2-6.7-1.9c-0.8,0.4-1.5,1.1-1.9,1.9c-0.9,1.7-1.3,3.6-1.3,5.5c0,8.8,0,17.7,0,26.5c0.2,1.8-1.1,3.3-2.8,3.5
			c-0.2,0-0.4,0-0.6,0c-4.8-0.1-9.7,0-14.5,0c-2.2,0-3.3-1.1-3.3-3.3L27.7,53.6z"/>
		<path class="st0" d="M1.9,53.6V29.2c0-2.2,1.1-3.3,3.3-3.3h14.6c2.3,0,3.4,1.1,3.4,3.4c0,16.2,0,32.5,0,48.7
			c0,2.3-1.1,3.4-3.4,3.4c-4.9,0-9.7,0-14.6,0c-2.2,0-3.3-1.1-3.3-3.2L1.9,53.6z M7.4,53.6c0,7.1,0,14.2,0,21.3
			c0,0.7,0.2,0.9,0.9,0.9c2.8,0,5.6,0,8.4,0c0.3,0,0.9,0.3,0.8-0.4s0.5-1.3-0.6-1.5c-1.3-0.2-2.2-1.4-2.3-2.7c0-1.3,1-2.4,2.2-2.7
			c0.5-0.1,0.8-0.2,0.7-0.8s0.3-1.1-0.6-1.2c-1.3-0.2-2.3-1.3-2.3-2.7c0-1.3,1-2.5,2.3-2.7c0.6-0.1,0.6-0.3,0.6-0.8
			c0-9.4,0-18.8,0-28.1c0-0.6-0.2-0.7-0.7-0.7c-2.8,0-5.7,0-8.5,0c-0.8,0-1,0.2-1,1C7.4,39.5,7.4,46.6,7.4,53.6L7.4,53.6z"/>
		<path class="st0" d="M0,12C0,5.4,5.4,0,12,0s12,5.4,12,12s-5.4,12-12,12S0,18.6,0,12z M18.5,12c0-3.6-2.9-6.5-6.5-6.5
			c-3.6,0-6.5,2.9-6.5,6.5c0,3.6,2.9,6.5,6.5,6.5c0,0,0,0,0,0C15.6,18.5,18.5,15.6,18.5,12C18.5,12,18.5,12,18.5,12z"/>
	</g>
</g>
</svg>
